<?xml version="1.0" standalone="no"?><!DOCTYPE svg PUBLIC "-//W3C//DTD SVG 1.1//EN" "http://www.w3.org/Graphics/SVG/1.1/DTD/svg11.dtd"><svg class="icon" width="200px" height="200.00px" viewBox="0 0 1024 1024" version="1.1" xmlns="http://www.w3.org/2000/svg"><path d="M806.4 172.8l-633.6 633.6c-12.8 12.8-12.8 32 0 44.8 12.8 12.8 32 12.8 44.8 0l633.6-633.6c12.8-12.8 12.8-32 0-44.8-12.8-12.8-32-12.8-44.8 0z" /><path d="M172.8 172.8c-12.8 12.8-12.8 32 0 44.8l633.6 633.6c12.8 12.8 32 12.8 44.8 0 12.8-12.8 12.8-32 0-44.8L217.6 172.8c-12.8-12.8-32-12.8-44.8 0z" /></svg>